<svg xmlns="http://www.w3.org/2000/svg" viewBox="0 0 100 100" width="100" height="100">
  <defs>
    <linearGradient id="bgG" x1="0%" y1="0%" x2="100%" y2="100%">
      <stop offset="0%" style="stop-color:#4F46E5"/>
      <stop offset="100%" style="stop-color:#7C3AED"/>
    </linearGradient>
    <linearGradient id="iG" x1="0%" y1="0%" x2="100%" y2="100%">
      <stop offset="0%" style="stop-color:#ffffff"/>
      <stop offset="100%" style="stop-color:#C7D2FE"/>
    </linearGradient>
  </defs>
  <rect width="100" height="100" rx="24" fill="url(#bgG)"/>
  <!-- Hemisferio izquierdo -->
  <path d="M18 50 C18 33 28 23 40 23 C46 23 50 26 52 30 L52 67 C50 71 46 73 40 73 C28 73 18 67 18 50Z"
        fill="none" stroke="url(#iG)" stroke-width="3.5" stroke-linecap="round" stroke-linejoin="round"/>
  <!-- Hemisferio derecho -->
  <path d="M82 50 C82 33 72 23 60 23 C60 23 52 30 52 30 L52 67 C52 67 60 73 60 73 C72 73 82 67 82 50Z"
        fill="none" stroke="url(#iG)" stroke-width="3.5" stroke-linecap="round" stroke-linejoin="round"/>
  <!-- División -->
  <line x1="50" y1="23" x2="50" y2="73" stroke="url(#iG)" stroke-width="2.5" stroke-dasharray="4,3"/>
  <!-- Surcos izquierdo -->
  <path d="M24 44 Q30 40 34 46 Q38 52 34 58" fill="none" stroke="url(#iG)" stroke-width="2.2" stroke-linecap="round"/>
  <path d="M20 56 Q26 52 30 56" fill="none" stroke="url(#iG)" stroke-width="2" stroke-linecap="round"/>
  <!-- Surcos derecho -->
  <path d="M76 44 Q70 40 67 46 Q63 52 67 58" fill="none" stroke="url(#iG)" stroke-width="2.2" stroke-linecap="round"/>
  <path d="M80 56 Q74 52 70 56" fill="none" stroke="url(#iG)" stroke-width="2" stroke-linecap="round"/>
  <!-- Tronco -->
  <path d="M44 73 Q50 80 56 73" fill="none" stroke="url(#iG)" stroke-width="3" stroke-linecap="round"/>
</svg>
